<?xml version="1.0" standalone="no"?>
<!DOCTYPE svg PUBLIC "-//W3C//DTD SVG 20010904//EN"
 "http://www.w3.org/TR/2001/REC-SVG-20010904/DTD/svg10.dtd">
<svg version="1.0" xmlns="http://www.w3.org/2000/svg"
 width="351.000000pt" height="318.000000pt" viewBox="0 0 351.000000 318.000000"
 preserveAspectRatio="xMidYMid meet">

<g transform="translate(0.000000,318.000000) scale(0.100000,-0.100000)"
fill="#000000" stroke="none">
<path d="M0 2620 l0 -560 43 7 c68 11 92 10 92 -7 0 -11 -18 -17 -67 -24 l-68
-9 0 -1014 0 -1013 44 0 c42 0 45 2 43 26 -3 33 25 54 51 38 9 -6 17 -23 17
-38 l-1 -26 1678 0 1678 0 0 865 c0 788 -1 865 -16 865 -9 0 -25 11 -36 25
-27 34 -70 33 -97 -1 -14 -18 -19 -34 -15 -50 5 -20 2 -24 -15 -24 -32 0 -30
69 3 107 21 24 32 28 76 28 44 0 55 -4 76 -28 l24 -28 0 710 0 711 -1470 0
-1470 0 0 -65 c0 -58 -2 -65 -20 -65 -18 0 -20 7 -20 65 l0 65 -265 0 -265 0
0 -560z m1228 435 c38 -32 46 -65 28 -109 -42 -101 -196 -74 -196 34 0 88 100
132 168 75z m1890 -147 l-3 -103 -68 -3 c-52 -2 -69 0 -73 12 -7 19 112 196
132 196 12 0 14 -17 12 -102z m-1122 -120 c80 -51 104 -78 67 -78 -27 0 -173
98 -173 115 0 24 18 18 106 -37z m-1742 -142 c38 -50 34 -78 -14 -110 -51 -33
-64 -33 -97 5 -47 52 -48 67 -7 105 48 46 83 45 118 0z m1059 -267 c16 -26 1
-49 -32 -49 -21 0 -32 6 -36 20 -14 43 44 67 68 29z m1611 -131 c18 -95 20
-128 6 -128 -15 0 -26 29 -39 100 -7 36 -15 75 -18 88 -4 17 -1 22 15 22 16 0
22 -13 36 -82z m-820 -102 c25 -29 46 -60 46 -69 0 -25 -64 -127 -80 -127 -16
0 -100 98 -100 117 0 17 69 133 80 133 5 0 29 -24 54 -54z m-1394 -261 c39
-19 70 -39 70 -45 0 -13 -152 -140 -169 -140 -11 0 -12 17 -6 88 8 102 14 132
26 132 5 0 41 -16 79 -35z m1925 -252 c-12 -49 -25 -57 -52 -32 -12 13 -23 31
-23 41 0 14 8 18 41 18 40 0 41 -1 34 -27z m-1072 -22 c4 -4 3 -20 -2 -34 -11
-29 -37 -35 -65 -14 -14 10 -15 17 -6 41 9 24 14 27 38 21 15 -3 31 -10 35
-14z m-603 -394 c-1 -20 -139 -130 -155 -123 -26 9 -17 21 61 84 71 58 94 68
94 39z m1738 -123 c12 -8 22 -16 22 -19 0 -32 -25 -105 -37 -110 -25 -9 -102
5 -119 22 -17 17 -11 74 13 111 13 21 20 23 56 17 23 -4 52 -13 65 -21z m736
-46 c9 -29 22 -75 31 -101 18 -60 14 -62 -90 -52 -55 5 -75 11 -75 21 0 25 91
184 105 184 8 0 20 -23 29 -52z m-1764 -58 l0 -91 -97 3 c-79 2 -98 6 -98 18
0 12 17 16 78 18 l77 3 0 63 c0 65 4 76 27 76 10 0 13 -22 13 -90z m-1231
-123 c17 -21 40 -159 30 -178 -9 -19 -67 -33 -93 -23 -9 3 -18 16 -21 28 -29
140 -29 171 3 179 35 9 70 7 81 -6z m1756 -173 c12 -19 14 -29 5 -39 -20 -25
-50 -28 -65 -8 -21 27 -18 48 8 61 31 15 33 15 52 -14z m767 -271 c57 -57 68
-76 48 -88 -12 -8 -140 113 -140 132 0 28 37 11 92 -44z m-1888 -104 c38 -30
49 -64 36 -105 -8 -23 -18 -34 -31 -34 -22 0 -24 9 -8 44 26 57 -54 103 -103
59 -21 -19 -45 -5 -35 22 15 37 101 46 141 14z m1066 -141 c0 -7 -7 -46 -17
-86 -13 -54 -21 -72 -34 -72 -20 0 -112 105 -107 121 4 13 100 46 136 48 12 1
22 -5 22 -11z m1089 -34 c12 -15 21 -32 21 -39 0 -7 -9 -24 -21 -39 -25 -32
-64 -34 -96 -4 -29 27 -29 55 -1 85 29 31 71 30 97 -3z"/>
<path d="M1116 3024 c-22 -21 -20 -67 2 -87 26 -24 65 -21 90 6 26 28 27 45 6
75 -18 26 -74 30 -98 6z"/>
<path d="M3053 2885 c-29 -43 -29 -45 2 -45 23 0 25 4 25 40 0 22 -1 40 -2 40
-2 0 -13 -16 -25 -35z"/>
<path d="M163 2621 l-21 -18 22 -28 c22 -27 23 -28 49 -10 32 20 34 36 9 58
-23 21 -32 21 -59 -2z"/>
<path d="M2030 2105 l-22 -36 23 -27 c13 -15 27 -31 30 -35 3 -5 16 8 28 28
23 39 20 55 -17 88 -19 18 -20 17 -42 -18z"/>
<path d="M645 1823 c-3 -24 -4 -47 -2 -50 3 -3 22 10 42 29 l37 33 -35 17 -35
17 -7 -46z"/>
<path d="M2596 1049 c-7 -37 4 -49 45 -49 22 0 28 6 33 32 3 17 5 32 4 34 -2
1 -19 5 -39 9 -35 6 -36 5 -43 -26z"/>
<path d="M3372 981 c-12 -21 -22 -41 -22 -45 0 -3 18 -6 41 -6 37 0 40 2 33
23 -12 38 -23 67 -27 67 -2 0 -13 -17 -25 -39z"/>
<path d="M370 827 c0 -7 5 -39 11 -70 9 -44 16 -57 30 -57 26 0 28 9 15 75
-10 50 -15 61 -34 63 -14 2 -22 -2 -22 -11z"/>
<path d="M2061 139 l-33 -10 23 -25 c12 -13 24 -22 26 -20 4 3 23 67 20 65 -1
0 -17 -5 -36 -10z"/>
<path d="M3154 115 c-4 -9 -2 -21 4 -27 16 -16 47 -5 47 17 0 26 -42 34 -51
10z"/>
</g>
</svg>
